<svg aria-hidden="true" style="position: absolute; width: 0; height: 0; overflow: hidden;" version="1.1" xmlns="http://www.w3.org/2000/svg" xmlns:xlink="http://www.w3.org/1999/xlink">
  <defs>
    <symbol id="icon-angle-left-b" viewBox="0 0 32 32">
      <path d="M11.333 15.067l7.467-7.6c0.533-0.533 1.333-0.533 1.867 0s0.533 1.333 0 1.867l-6.533 6.533 6.533 6.533c0.267 0.267 0.4 0.533 0.4 0.933 0 0.8-0.533 1.333-1.333 1.333-0.4 0-0.667-0.133-0.933-0.4l-7.6-7.6c-0.4-0.267-0.4-1.067 0.133-1.6z"></path>
    </symbol>
    <symbol id="icon-angle-right-b" viewBox="0 0 32 32">
      <path d="M20.667 15.067l-7.467-7.6c-0.533-0.533-1.333-0.533-1.867 0s-0.533 1.333 0 1.867l6.533 6.533-6.533 6.533c-0.267 0.267-0.4 0.533-0.4 0.933 0 0.8 0.533 1.333 1.333 1.333 0.4 0 0.667-0.133 0.933-0.4l7.6-7.6c0.4-0.267 0.4-1.067-0.133-1.6z"></path>
    </symbol>
    <symbol id="icon-burger" viewBox="0 0 32 32">
      <path d="M25.412 9.333h-18.824c-0.333 0-0.652-0.14-0.887-0.391s-0.368-0.589-0.368-0.943 0.132-0.693 0.368-0.943c0.235-0.25 0.555-0.391 0.887-0.391h18.824c0.333 0 0.652 0.14 0.887 0.391s0.368 0.589 0.368 0.943-0.132 0.693-0.368 0.943c-0.235 0.25-0.555 0.391-0.887 0.391z"></path>
      <path d="M25.412 17.333h-18.824c-0.333 0-0.652-0.14-0.887-0.391s-0.368-0.589-0.368-0.943 0.132-0.693 0.368-0.943c0.235-0.25 0.555-0.391 0.887-0.391h18.824c0.333 0 0.652 0.14 0.887 0.391s0.368 0.589 0.368 0.943-0.132 0.693-0.368 0.943c-0.235 0.25-0.555 0.391-0.887 0.391z"></path>
      <path d="M25.412 25.333h-18.824c-0.333 0-0.652-0.14-0.887-0.391s-0.368-0.589-0.368-0.943 0.132-0.693 0.368-0.943c0.235-0.25 0.555-0.39 0.887-0.39h18.824c0.333 0 0.652 0.14 0.887 0.39s0.368 0.589 0.368 0.943-0.132 0.693-0.368 0.943c-0.235 0.25-0.555 0.391-0.887 0.391z"></path>
    </symbol>
    <symbol id="icon-cancel" viewBox="0 0 32 32">
      <path d="M17.823 16l5.56-5.547c0.244-0.243 0.38-0.574 0.38-0.918s-0.137-0.675-0.38-0.918c-0.243-0.243-0.574-0.38-0.918-0.38s-0.675 0.137-0.918 0.38l-5.547 5.56-5.547-5.56c-0.243-0.243-0.574-0.38-0.918-0.38s-0.675 0.137-0.918 0.38c-0.243 0.243-0.38 0.574-0.38 0.918s0.137 0.675 0.38 0.918l5.56 5.547-5.56 5.547c-0.121 0.12-0.217 0.263-0.283 0.421s-0.099 0.326-0.099 0.497c0 0.171 0.034 0.34 0.099 0.497s0.162 0.301 0.283 0.421c0.12 0.121 0.263 0.217 0.421 0.283s0.327 0.099 0.497 0.099c0.171 0 0.34-0.034 0.497-0.099s0.301-0.162 0.421-0.283l5.547-5.56 5.547 5.56c0.12 0.121 0.263 0.217 0.421 0.283s0.327 0.099 0.497 0.099c0.171 0 0.34-0.034 0.497-0.099s0.301-0.162 0.421-0.283c0.121-0.12 0.217-0.263 0.283-0.421s0.099-0.326 0.099-0.497c0-0.171-0.034-0.34-0.099-0.497s-0.162-0.301-0.283-0.421l-5.56-5.547z"></path>
    </symbol>
    <symbol id='icon-play'>
      <svg width="35" height="40" viewBox="0 0 35 40" fill="none" xmlns="http://www.w3.org/2000/svg">
        <path d="M1.40729 1.25C0.962845 1.7 0.814697 2.45 0.814697 3.35V36.5C0.814697 37.4 1.11099 38.15 1.55544 38.6L1.70359 38.75L20.074 20.15V19.85L1.40729 1.25Z" fill="url(#paint0_linear_2041_101)" />
        <path d="M25.9999 26.4497L19.9258 20.2997V19.8497L25.9999 13.6997L26.148 13.8497L33.4073 18.0497C35.4813 19.2497 35.4813 21.1997 33.4073 22.3997L25.9999 26.4497Z" fill="url(#paint1_linear_2041_101)" />
        <path d="M26.148 26.3L19.9257 20L1.40723 38.75C2.14797 39.5 3.185 39.5 4.51834 38.9L26.148 26.3Z" fill="url(#paint2_linear_2041_101)" />
        <path d="M26.148 13.6999L4.51834 1.24992C3.185 0.499924 2.14797 0.649924 1.40723 1.39992L19.9257 19.9999L26.148 13.6999Z" fill="url(#paint3_linear_2041_101)" />
        <path opacity="0.2" d="M25.9998 26.1504L4.51834 38.4504C3.33315 39.2004 2.29612 39.0504 1.55538 38.4504L1.40723 38.6004L1.55538 38.7504C2.29612 39.3504 3.33315 39.5004 4.51834 38.7504L25.9998 26.1504Z" fill="black" />
        <path opacity="0.12" d="M1.40729 38.45C0.962845 38 0.814697 37.25 0.814697 36.35V36.5C0.814697 37.4 1.11099 38.15 1.55544 38.6V38.45H1.40729ZM33.4073 21.95L25.9999 26.15L26.148 26.3L33.4073 22.1C34.4443 21.5 34.8888 20.75 34.8888 20C34.8888 20.75 34.2962 21.35 33.4073 21.95Z" fill="black" />
        <path opacity="0.25" d="M4.51852 1.40041L33.4074 18.0504C34.2963 18.6504 34.8889 19.2504 34.8889 20.0004C34.8889 19.2504 34.4444 18.5004 33.4074 17.9004L4.51852 1.25041C2.44445 0.0504056 0.814819 0.950405 0.814819 3.3504V3.50041C0.814819 1.25041 2.44445 0.200405 4.51852 1.40041Z" fill="white" />
        <defs>
          <linearGradient id="paint0_linear_2041_101" x1="18.2962" y1="3.065" x2="-6.87636" y2="27.9253" gradientUnits="userSpaceOnUse">
            <stop stop-color="#00A0FF" />
            <stop offset="0.007" stop-color="#00A1FF" />
            <stop offset="0.26" stop-color="#00BEFF" />
            <stop offset="0.512" stop-color="#00D2FF" />
            <stop offset="0.76" stop-color="#00DFFF" />
            <stop offset="1" stop-color="#00E3FF" />
          </linearGradient>
          <linearGradient id="paint1_linear_2041_101" x1="36.1243" y1="20.0012" x2="0.276892" y2="20.0012" gradientUnits="userSpaceOnUse">
            <stop stop-color="#FFE000" />
            <stop offset="0.409" stop-color="#FFBD00" />
            <stop offset="0.775" stop-color="#FFA500" />
            <stop offset="1" stop-color="#FF9C00" />
          </linearGradient>
          <linearGradient id="paint2_linear_2041_101" x1="22.7806" y1="23.444" x2="-11.3538" y2="57.157" gradientUnits="userSpaceOnUse">
            <stop stop-color="#FF3A44" />
            <stop offset="1" stop-color="#C31162" />
          </linearGradient>
          <linearGradient id="paint3_linear_2041_101" x1="-3.18981" y1="-9.73608" x2="12.0535" y2="5.31906" gradientUnits="userSpaceOnUse">
            <stop stop-color="#32A071" />
            <stop offset="0.069" stop-color="#2DA771" />
            <stop offset="0.476" stop-color="#15CF74" />
            <stop offset="0.801" stop-color="#06E775" />
            <stop offset="1" stop-color="#00F076" />
          </linearGradient>
        </defs>
      </svg>
    </symbol>
  </defs>
</svg>