<svg aria-hidden="true" style="position: absolute; width: 0; height: 0; overflow: hidden;" version="1.1" xmlns="http://www.w3.org/2000/svg" xmlns:xlink="http://www.w3.org/1999/xlink">
  <defs>
    <symbol id="icon-angle-left-b" viewBox="0 0 32 32">
      <path d="M8.4998 11.3L14.0998 5.6C14.4998 5.2 15.0998 5.2 15.4998 5.6C15.8998 6 15.8998 6.6 15.4998 7L10.5998 11.9L15.4998 16.8C15.6998 17 15.7998 17.2 15.7998 17.5C15.7998 18.1 15.3998 18.5 14.7998 18.5C14.4998 18.5 14.2998 18.4 14.0998 18.2L8.3998 12.5C8.0998 12.3 8.0998 11.7 8.4998 11.3Z" fill="url(#paint0_linear_399_595)" />
      <defs>
        <linearGradient id="paint0_linear_399_595" x1="15.7998" y1="11.9" x2="8.18596" y2="11.9" gradientUnits="userSpaceOnUse">
          <stop stop-color="#592193" />
          <stop offset="0.5" stop-color="#BB2FD0" />
          <stop offset="1" stop-color="#592193" />
        </linearGradient>
      </defs>
    </symbol>
    <symbol id="icon-angle-right-b" viewBox="0 0 32 32">
      <path d="M23.25 16.9502L14.85 8.4002C14.25 7.8002 13.35 7.8002 12.75 8.4002C12.15 9.0002 12.15 9.9002 12.75 10.5002L20.1 17.8502L12.75 25.2002C12.45 25.5002 12.3 25.8002 12.3 26.2502C12.3 27.1502 12.9 27.7502 13.8 27.7502C14.25 27.7502 14.55 27.6002 14.85 27.3002L23.4 18.7502C23.85 18.4502 23.85 17.5502 23.25 16.9502Z" fill="url(#paint0_linear_190_388)" />
      <defs>
        <linearGradient id="paint0_linear_190_388" x1="12.3" y1="17.8502" x2="23.7208" y2="17.8502" gradientUnits="userSpaceOnUse">
          <stop stop-color="#592193" />
          <stop offset="0.5" stop-color="#BB2FD0" />
          <stop offset="1" stop-color="#592193" />
        </linearGradient>
      </defs>
    </symbol>
    <symbol id="icon-burger" viewBox="0 0 27 23">
      <path d="M24.9706 3.375H2.02941C1.62379 3.375 1.23477 3.20379 0.947955 2.89905C0.661134 2.5943 0.5 2.18098 0.5 1.75C0.5 1.31902 0.661134 0.905698 0.947955 0.600952C1.23477 0.296205 1.62379 0.125 2.02941 0.125H24.9706C25.3762 0.125 25.7652 0.296205 26.052 0.600952C26.3389 0.905698 26.5 1.31902 26.5 1.75C26.5 2.18098 26.3389 2.5943 26.052 2.89905C25.7652 3.20379 25.3762 3.375 24.9706 3.375Z" fill="url(#paint0_linear_2041_186)" />
      <path d="M24.9706 13.125H2.02941C1.62379 13.125 1.23477 12.9538 0.947955 12.649C0.661134 12.3443 0.5 11.931 0.5 11.5C0.5 11.069 0.661134 10.6557 0.947955 10.351C1.23477 10.0462 1.62379 9.875 2.02941 9.875H24.9706C25.3762 9.875 25.7652 10.0462 26.052 10.351C26.3389 10.6557 26.5 11.069 26.5 11.5C26.5 11.931 26.3389 12.3443 26.052 12.649C25.7652 12.9538 25.3762 13.125 24.9706 13.125Z" fill="url(#paint1_linear_2041_186)" />
      <path d="M24.9706 22.875H2.02941C1.62379 22.875 1.23477 22.7038 0.947955 22.399C0.661134 22.0943 0.5 21.681 0.5 21.25C0.5 20.819 0.661134 20.4057 0.947955 20.1009C1.23477 19.7962 1.62379 19.625 2.02941 19.625H24.9706C25.3762 19.625 25.7652 19.7962 26.052 20.1009C26.3389 20.4057 26.5 20.819 26.5 21.25C26.5 21.681 26.3389 22.0943 26.052 22.399C25.7652 22.7038 25.3762 22.875 24.9706 22.875Z" fill="url(#paint2_linear_2041_186)" />
      <defs>
        <linearGradient id="paint0_linear_2041_186" x1="0.5" y1="11.5" x2="26.5" y2="11.5" gradientUnits="userSpaceOnUse">
          <stop stop-color="#592193" />
          <stop offset="0.5" stop-color="#BB2FD0" />
          <stop offset="1" stop-color="#592193" />
        </linearGradient>
        <linearGradient id="paint1_linear_2041_186" x1="0.5" y1="11.5" x2="26.5" y2="11.5" gradientUnits="userSpaceOnUse">
          <stop stop-color="#592193" />
          <stop offset="0.5" stop-color="#BB2FD0" />
          <stop offset="1" stop-color="#592193" />
        </linearGradient>
        <linearGradient id="paint2_linear_2041_186" x1="0.5" y1="11.5" x2="26.5" y2="11.5" gradientUnits="userSpaceOnUse">
          <stop stop-color="#592193" />
          <stop offset="0.5" stop-color="#BB2FD0" />
          <stop offset="1" stop-color="#592193" />
        </linearGradient>
      </defs>
    </symbol>
    <symbol id="icon-cancel" viewBox="0 0 32 32">
      <path d="M18.38 16.5L24.1133 10.78C24.3644 10.5289 24.5055 10.1884 24.5055 9.83333C24.5055 9.47826 24.3644 9.13773 24.1133 8.88666C23.8623 8.63559 23.5217 8.49454 23.1667 8.49454C22.8116 8.49454 22.4711 8.63559 22.22 8.88666L16.5 14.62L10.78 8.88666C10.5289 8.63559 10.1884 8.49454 9.83334 8.49454C9.47827 8.49454 9.13775 8.63559 8.88668 8.88666C8.63561 9.13773 8.49455 9.47826 8.49455 9.83333C8.49455 10.1884 8.63561 10.5289 8.88668 10.78L14.62 16.5L8.88668 22.22C8.76171 22.3439 8.66251 22.4914 8.59482 22.6539C8.52713 22.8164 8.49228 22.9906 8.49228 23.1667C8.49228 23.3427 8.52713 23.5169 8.59482 23.6794C8.66251 23.8419 8.76171 23.9894 8.88668 24.1133C9.01063 24.2383 9.1581 24.3375 9.32057 24.4052C9.48305 24.4729 9.65733 24.5077 9.83334 24.5077C10.0094 24.5077 10.1836 24.4729 10.3461 24.4052C10.5086 24.3375 10.6561 24.2383 10.78 24.1133L16.5 18.38L22.22 24.1133C22.344 24.2383 22.4914 24.3375 22.6539 24.4052C22.8164 24.4729 22.9907 24.5077 23.1667 24.5077C23.3427 24.5077 23.517 24.4729 23.6794 24.4052C23.8419 24.3375 23.9894 24.2383 24.1133 24.1133C24.2383 23.9894 24.3375 23.8419 24.4052 23.6794C24.4729 23.5169 24.5077 23.3427 24.5077 23.1667C24.5077 22.9906 24.4729 22.8164 24.4052 22.6539C24.3375 22.4914 24.2383 22.3439 24.1133 22.22L18.38 16.5Z" fill="url(#paint0_linear_276_379)" />
      <defs>
        <linearGradient id="paint0_linear_276_379" x1="8.49228" y1="16.5011" x2="24.5077" y2="16.5011" gradientUnits="userSpaceOnUse">
          <stop stop-color="#592193" />
          <stop offset="0.5" stop-color="#BB2FD0" />
          <stop offset="1" stop-color="#592193" />
        </linearGradient>
      </defs>
    </symbol>
    <symbol id='icon-play'>
      <svg width="35" height="40" viewBox="0 0 35 40" fill="none" xmlns="http://www.w3.org/2000/svg">
        <path d="M1.40729 1.25C0.962845 1.7 0.814697 2.45 0.814697 3.35V36.5C0.814697 37.4 1.11099 38.15 1.55544 38.6L1.70359 38.75L20.074 20.15V19.85L1.40729 1.25Z" fill="url(#paint0_linear_2041_101)" />
        <path d="M25.9999 26.4497L19.9258 20.2997V19.8497L25.9999 13.6997L26.148 13.8497L33.4073 18.0497C35.4813 19.2497 35.4813 21.1997 33.4073 22.3997L25.9999 26.4497Z" fill="url(#paint1_linear_2041_101)" />
        <path d="M26.148 26.3L19.9257 20L1.40723 38.75C2.14797 39.5 3.185 39.5 4.51834 38.9L26.148 26.3Z" fill="url(#paint2_linear_2041_101)" />
        <path d="M26.148 13.6999L4.51834 1.24992C3.185 0.499924 2.14797 0.649924 1.40723 1.39992L19.9257 19.9999L26.148 13.6999Z" fill="url(#paint3_linear_2041_101)" />
        <path opacity="0.2" d="M25.9998 26.1504L4.51834 38.4504C3.33315 39.2004 2.29612 39.0504 1.55538 38.4504L1.40723 38.6004L1.55538 38.7504C2.29612 39.3504 3.33315 39.5004 4.51834 38.7504L25.9998 26.1504Z" fill="black" />
        <path opacity="0.12" d="M1.40729 38.45C0.962845 38 0.814697 37.25 0.814697 36.35V36.5C0.814697 37.4 1.11099 38.15 1.55544 38.6V38.45H1.40729ZM33.4073 21.95L25.9999 26.15L26.148 26.3L33.4073 22.1C34.4443 21.5 34.8888 20.75 34.8888 20C34.8888 20.75 34.2962 21.35 33.4073 21.95Z" fill="black" />
        <path opacity="0.25" d="M4.51852 1.40041L33.4074 18.0504C34.2963 18.6504 34.8889 19.2504 34.8889 20.0004C34.8889 19.2504 34.4444 18.5004 33.4074 17.9004L4.51852 1.25041C2.44445 0.0504056 0.814819 0.950405 0.814819 3.3504V3.50041C0.814819 1.25041 2.44445 0.200405 4.51852 1.40041Z" fill="white" />
        <defs>
          <linearGradient id="paint0_linear_2041_101" x1="18.2962" y1="3.065" x2="-6.87636" y2="27.9253" gradientUnits="userSpaceOnUse">
            <stop stop-color="#00A0FF" />
            <stop offset="0.007" stop-color="#00A1FF" />
            <stop offset="0.26" stop-color="#00BEFF" />
            <stop offset="0.512" stop-color="#00D2FF" />
            <stop offset="0.76" stop-color="#00DFFF" />
            <stop offset="1" stop-color="#00E3FF" />
          </linearGradient>
          <linearGradient id="paint1_linear_2041_101" x1="36.1243" y1="20.0012" x2="0.276892" y2="20.0012" gradientUnits="userSpaceOnUse">
            <stop stop-color="#FFE000" />
            <stop offset="0.409" stop-color="#FFBD00" />
            <stop offset="0.775" stop-color="#FFA500" />
            <stop offset="1" stop-color="#FF9C00" />
          </linearGradient>
          <linearGradient id="paint2_linear_2041_101" x1="22.7806" y1="23.444" x2="-11.3538" y2="57.157" gradientUnits="userSpaceOnUse">
            <stop stop-color="#FF3A44" />
            <stop offset="1" stop-color="#C31162" />
          </linearGradient>
          <linearGradient id="paint3_linear_2041_101" x1="-3.18981" y1="-9.73608" x2="12.0535" y2="5.31906" gradientUnits="userSpaceOnUse">
            <stop stop-color="#32A071" />
            <stop offset="0.069" stop-color="#2DA771" />
            <stop offset="0.476" stop-color="#15CF74" />
            <stop offset="0.801" stop-color="#06E775" />
            <stop offset="1" stop-color="#00F076" />
          </linearGradient>
        </defs>
      </svg>
    </symbol>
  </defs>
</svg>