<svg aria-hidden="true" style="position: absolute; width: 0; height: 0; overflow: hidden;" version="1.1"
  xmlns="http://www.w3.org/2000/svg" xmlns:xlink="http://www.w3.org/1999/xlink">
  <defs>
    <!-- Existing symbols -->
    <symbol id="icon-angle-left-b" viewBox="0 0 24 24">
      <path
        d="M8.4998 11.3L14.0998 5.6C14.4998 5.2 15.0998 5.2 15.4998 5.6C15.8998 6 15.8998 6.6 15.4998 7L10.5998 11.9L15.4998 16.8C15.6998 17 15.7998 17.2 15.7998 17.5C15.7998 18.1 15.3998 18.5 14.7998 18.5C14.4998 18.5 14.2998 18.4 14.0998 18.2L8.3998 12.5C8.0998 12.3 8.0998 11.7 8.4998 11.3Z"
        fill="url(#paint0_linear_399_595)" />
      <defs>
        <linearGradient id="paint0_linear_399_595" x1="15.7998" y1="11.9" x2="8.18596" y2="11.9"
          gradientUnits="userSpaceOnUse">
          <stop stop-color="#592193" />
          <stop offset="0.5" stop-color="#BB2FD0" />
          <stop offset="1" stop-color="#592193" />
        </linearGradient>
      </defs>
    </symbol>
    <symbol id="icon-angle-right-b" viewBox="0 0 32 32">
      <path
        d="M23.25 16.9502L14.85 8.4002C14.25 7.8002 13.35 7.8002 12.75 8.4002C12.15 9.0002 12.15 9.9002 12.75 10.5002L20.1 17.8502L12.75 25.2002C12.45 25.5002 12.3 25.8002 12.3 26.2502C12.3 27.1502 12.9 27.7502 13.8 27.7502C14.25 27.7502 14.55 27.6002 14.85 27.3002L23.4 18.7502C23.85 18.4502 23.85 17.5502 23.25 16.9502Z"
        fill="url(#paint0_linear_190_388)" />
      <defs>
        <linearGradient id="paint0_linear_190_388" x1="12.3" y1="17.8502" x2="23.7208" y2="17.8502"
          gradientUnits="userSpaceOnUse">
          <stop stop-color="#592193" />
          <stop offset="0.5" stop-color="#BB2FD0" />
          <stop offset="1" stop-color="#592193" />
        </linearGradient>
      </defs>
    </symbol>
    <symbol id="icon-burger" viewBox="0 0 27 23">
      <path
        d="M24.9706 3.375H2.02941C1.62379 3.375 1.23477 3.20379 0.947955 2.89905C0.661134 2.5943 0.5 2.18098 0.5 1.75C0.5 1.31902 0.661134 0.905698 0.947955 0.600952C1.23477 0.296205 1.62379 0.125 2.02941 0.125H24.9706C25.3762 0.125 25.7652 0.296205 26.052 0.600952C26.3389 0.905698 26.5 1.31902 26.5 1.75C26.5 2.18098 26.3389 2.5943 26.052 2.89905C25.7652 3.20379 25.3762 3.375 24.9706 3.375Z"
        fill="url(#paint0_linear_2041_186)" />
      <path
        d="M24.9706 13.125H2.02941C1.62379 13.125 1.23477 12.9538 0.947955 12.649C0.661134 12.3443 0.5 11.931 0.5 11.5C0.5 11.069 0.661134 10.6557 0.947955 10.351C1.23477 10.0462 1.62379 9.875 2.02941 9.875H24.9706C25.3762 9.875 25.7652 10.0462 26.052 10.351C26.3389 10.6557 26.5 11.069 26.5 11.5C26.5 11.931 26.3389 12.3443 26.052 12.649C25.7652 12.9538 25.3762 13.125 24.9706 13.125Z"
        fill="url(#paint1_linear_2041_186)" />
      <path
        d="M24.9706 22.875H2.02941C1.62379 22.875 1.23477 22.7038 0.947955 22.399C0.661134 22.0943 0.5 21.681 0.5 21.25C0.5 20.819 0.661134 20.4057 0.947955 20.1009C1.23477 19.7962 1.62379 19.625 2.02941 19.625H24.9706C25.3762 19.625 25.7652 19.7962 26.052 20.1009C26.3389 20.4057 26.5 20.819 26.5 21.25C26.5 21.681 26.3389 22.0943 26.052 22.399C25.7652 22.7038 25.3762 22.875 24.9706 22.875Z"
        fill="url(#paint2_linear_2041_186)" />
      <defs>
        <linearGradient id="paint0_linear_2041_186" x1="0.5" y1="11.5" x2="26.5" y2="11.5"
          gradientUnits="userSpaceOnUse">
          <stop stop-color="#592193" />
          <stop offset="0.5" stop-color="#BB2FD0" />
          <stop offset="1" stop-color="#592193" />
        </linearGradient>
        <linearGradient id="paint1_linear_2041_186" x1="0.5" y1="11.5" x2="26.5" y2="11.5"
          gradientUnits="userSpaceOnUse">
          <stop stop-color="#592193" />
          <stop offset="0.5" stop-color="#BB2FD0" />
          <stop offset="1" stop-color="#592193" />
        </linearGradient>
        <linearGradient id="paint2_linear_2041_186" x1="0.5" y1="11.5" x2="26.5" y2="11.5"
          gradientUnits="userSpaceOnUse">
          <stop stop-color="#592193" />
          <stop offset="0.5" stop-color="#BB2FD0" />
          <stop offset="1" stop-color="#592193" />
        </linearGradient>
      </defs>
    </symbol>
    <symbol id="icon-cancel" viewBox="0 0 32 32">
      <path
        d="M18.38 16.5L24.1133 10.78C24.3644 10.5289 24.5055 10.1884 24.5055 9.83333C24.5055 9.47826 24.3644 9.13773 24.1133 8.88666C23.8623 8.63559 23.5217 8.49454 23.1667 8.49454C22.8116 8.49454 22.4711 8.63559 22.22 8.88666L16.5 14.62L10.78 8.88666C10.5289 8.63559 10.1884 8.49454 9.83334 8.49454C9.47827 8.49454 9.13775 8.63559 8.88668 8.88666C8.63561 9.13773 8.49455 9.47826 8.49455 9.83333C8.49455 10.1884 8.63561 10.5289 8.88668 10.78L14.62 16.5L22.22 24.1133C22.344 24.2383 22.4914 24.3375 22.6539 24.4052C22.8164 24.4729 22.9907 24.5077 23.1667 24.5077C23.3427 24.5077 23.517 24.4729 23.6794 24.4052C23.8419 24.3375 23.9894 24.2383 24.1133 24.1133C24.2383 23.9894 24.3375 23.8419 24.4052 23.6794C24.4729 23.5169 24.5077 23.3427 24.5077 23.1667C24.5077 22.9906 24.4729 22.8164 24.4052 22.6539C24.3375 22.4914 24.2383 22.3439 24.1133 22.22L18.38 16.5Z"
        fill="url(#paint0_linear_276_379)" />
      <defs>
        <linearGradient id="paint0_linear_276_379" x1="8.49228" y1="16.5011" x2="24.5077" y2="16.5011"
          gradientUnits="userSpaceOnUse">
          <stop stop-color="#592193" />
          <stop offset="0.5" stop-color="#BB2FD0" />
          <stop offset="1" stop-color="#592193" />
        </linearGradient>
      </defs>
    </symbol>
    <symbol id="icon-play">
      <svg viewBox="0 0 35 40" fill="none" xmlns="http://www.w3.org/2000/svg">
        <path
          d="M1.40729 1.25C0.962845 1.7 0.814697 2.45 0.814697 3.35V36.5C0.814697 37.4 1.11099 38.15 1.55544 38.6L1.70359 38.75L20.074 20.15V19.85L1.40729 1.25Z"
          fill="url(#paint0_linear_2041_101)" />
        <path
          d="M25.9999 26.4497L19.9258 20.2997V19.8497L25.9999 13.6997L26.148 13.8497L33.4073 18.0497C35.4813 19.2497 35.4813 21.1997 33.4073 22.3997L25.9999 26.4497Z"
          fill="url(#paint1_linear_2041_101)" />
        <path d="M26.148 26.3L19.9257 20L1.40723 38.75C2.14797 39.5 3.185 39.5 4.51834 38.9L26.148 26.3Z"
          fill="url(#paint2_linear_2041_101)" />
        <path
          d="M26.148 13.6999L4.51834 1.24992C3.185 0.499924 2.14797 0.649924 1.40723 1.39992L19.9257 19.9999L26.148 13.6999Z"
          fill="url(#paint3_linear_2041_101)" />
        <path opacity="0.2"
          d="M25.9998 26.1504L4.51834 38.4504C3.33315 39.2004 2.29612 39.0504 1.55538 38.4504L1.40723 38.6004L1.55538 38.7504C2.29612 39.3504 3.33315 39.5004 4.51834 38.7504L25.9998 26.1504Z"
          fill="black" />
        <path opacity="0.12"
          d="M1.40729 38.45C0.962845 38 0.814697 37.25 0.814697 36.35V36.5C0.814697 37.4 1.11099 38.15 1.55544 38.6V38.45H1.40729ZM33.4073 21.95L25.9999 26.15L26.148 26.3L33.4073 22.1C34.4443 21.5 34.8888 20.75 34.8888 20C34.8888 20.75 34.2962 21.35 33.4073 21.95Z"
          fill="black" />
        <path opacity="0.25"
          d="M4.51852 1.40041L33.4074 18.0504C34.2963 18.6504 34.8889 19.2504 34.8889 20.0004C34.8889 19.2504 34.4444 18.5004 33.4074 17.9004L4.51852 1.25041C2.44445 0.0504056 0.814819 0.950405 0.814819 3.3504V3.50041C0.814819 1.25041 2.44445 0.200405 4.51852 1.40041Z"
          fill="white" />
        <defs>
          <linearGradient id="paint0_linear_2041_101" x1="18.2962" y1="3.065" x2="-6.87636" y2="27.9253"
            gradientUnits="userSpaceOnUse">
            <stop stop-color="#00A0FF" />
            <stop offset="0.007" stop-color="#00A1FF" />
            <stop offset="0.26" stop-color="#00BEFF" />
            <stop offset="0.512" stop-color="#00D2FF" />
            <stop offset="0.76" stop-color="#00DFFF" />
            <stop offset="1" stop-color="#00E3FF" />
          </linearGradient>
          <linearGradient id="paint1_linear_2041_101" x1="36.1243" y1="20.0012" x2="0.276892" y2="20.0012"
            gradientUnits="userSpaceOnUse">
            <stop stop-color="#FFE000" />
            <stop offset="0.409" stop-color="#FFBD00" />
            <stop offset="0.775" stop-color="#FFA500" />
            <stop offset="1" stop-color="#FF9C00" />
          </linearGradient>
          <linearGradient id="paint2_linear_2041_101" x1="22.7806" y1="23.444" x2="-11.3538" y2="57.157"
            gradientUnits="userSpaceOnUse">
            <stop stop-color="#FF3A44" />
            <stop offset="1" stop-color="#C31162" />
          </linearGradient>
          <linearGradient id="paint3_linear_2041_101" x1="-3.18981" y1="-9.73608" x2="12.0535" y2="5.31906"
            gradientUnits="userSpaceOnUse">
            <stop stop-color="#32A071" />
            <stop offset="0.069" stop-color="#2DA771" />
            <stop offset="0.476" stop-color="#15CF74" />
            <stop offset="0.801" stop-color="#06E775" />
            <stop offset="1" stop-color="#00F076" />
          </linearGradient>
        </defs>
      </svg>
    </symbol>
    <!-- New symbols added from your provided SVG fragments -->
    <symbol id="google-brand" viewBox="0 0 95 20">
      <path
        d="M30.6667 5.52547C28 5.52547 25.8889 7.55048 25.8889 10.363C25.8889 13.063 28 15.2005 30.6667 15.2005C33.3334 15.2005 35.4445 13.1755 35.4445 10.363C35.4445 7.43798 33.3334 5.52547 30.6667 5.52547ZM30.6667 13.1755C29.2222 13.1755 28 11.938 28 10.2505C28 8.56298 29.2222 7.32548 30.6667 7.32548C32.1111 7.32548 33.3334 8.45048 33.3334 10.2505C33.3334 11.938 32.1111 13.1755 30.6667 13.1755ZM20.3334 5.52547C17.6667 5.52547 15.5556 7.55048 15.5556 10.363C15.5556 13.063 17.6667 15.2005 20.3334 15.2005C23 15.2005 25.1111 13.1755 25.1111 10.363C25.1111 7.43798 23 5.52547 20.3334 5.52547ZM20.3334 13.1755C18.8889 13.1755 17.6667 11.938 17.6667 10.2505C17.6667 8.56298 18.8889 7.32548 20.3334 7.32548C21.7778 7.32548 23 8.45048 23 10.2505C23 11.938 21.7778 13.1755 20.3334 13.1755ZM8.00002 6.98798V9.01298H12.7778C12.6667 10.138 12.2222 11.038 11.6667 11.6005C11 12.2755 9.88891 13.063 8.00002 13.063C5.00002 13.063 2.7778 10.7005 2.7778 7.66298C2.7778 4.62548 5.11113 2.26298 8.00002 2.26298C9.55558 2.26298 10.7778 2.93798 11.6667 3.72548L13.1111 2.26298C11.8889 1.13798 10.3334 0.237976 8.11113 0.237976C4.11113 0.237976 0.666687 3.61298 0.666687 7.66298C0.666687 11.713 4.11113 15.088 8.11113 15.088C10.3334 15.088 11.8889 14.413 13.2222 12.9505C14.5556 11.6005 15 9.68798 15 8.22548C15 7.77548 15 7.32548 14.8889 6.98798H8.00002ZM58.4445 8.56298C58 7.43798 56.8889 5.52547 54.4445 5.52547C52 5.52547 50 7.43798 50 10.363C50 13.063 52 15.2005 54.6667 15.2005C56.7778 15.2005 58.1111 13.8505 58.5556 13.063L57 11.938C56.4445 12.7255 55.7778 13.288 54.6667 13.288C53.5556 13.288 52.8889 12.838 52.3334 11.8255L58.6667 9.12548L58.4445 8.56298ZM52 10.138C52 8.33798 53.4445 7.32548 54.4445 7.32548C55.2222 7.32548 56 7.77547 56.2222 8.33797L52 10.138ZM46.7778 14.7505H48.8889V0.687976H46.7778V14.7505ZM43.4445 6.53798C42.8889 5.97548 42 5.41298 40.8889 5.41298C38.5556 5.41298 36.3334 7.55048 36.3334 10.2505C36.3334 12.9505 38.4445 14.9755 40.8889 14.9755C42 14.9755 42.8889 14.413 43.3334 13.8505H43.4445V14.5255C43.4445 16.3255 42.4445 17.338 40.8889 17.338C39.6667 17.338 38.7778 16.438 38.5556 15.6505L36.7778 16.438C37.3334 17.6755 38.6667 19.2505 41 19.2505C43.4445 19.2505 45.4445 17.788 45.4445 14.3005V5.75048H43.4445V6.53798ZM41 13.1755C39.5556 13.1755 38.3334 11.938 38.3334 10.2505C38.3334 8.56298 39.5556 7.32548 41 7.32548C42.4445 7.32548 43.5556 8.56298 43.5556 10.2505C43.5556 11.938 42.4445 13.1755 41 13.1755ZM68.1111 0.687976H63.1111V14.7505H65.2222V9.46297H68.1111C70.4445 9.46297 72.6667 7.77548 72.6667 5.07548C72.6667 2.37548 70.4445 0.687976 68.1111 0.687976ZM68.2222 7.43798H65.2222V2.60048H68.2222C69.7778 2.60048 70.6667 3.95047 70.6667 4.96297C70.5556 6.20047 69.6667 7.43798 68.2222 7.43798ZM81 5.41298C79.4445 5.41298 77.8889 6.08798 77.3334 7.55048L79.2223 8.33797C79.6667 7.55047 80.3334 7.32548 81.1111 7.32548C82.2222 7.32548 83.2222 8.00048 83.3334 9.12548V9.23798C83 9.01298 82.1111 8.67548 81.2222 8.67548C79.2222 8.67548 77.2222 9.80048 77.2222 11.8255C77.2222 13.738 78.8889 14.9755 80.6667 14.9755C82.1111 14.9755 82.7778 14.3005 83.3334 13.6255H83.4445V14.7505H85.4445V9.35048C85.2222 6.87548 83.3334 5.41298 81 5.41298ZM80.7778 13.1755C80.1111 13.1755 79.1111 12.838 79.1111 11.938C79.1111 10.813 80.3334 10.4755 81.3334 10.4755C82.2222 10.4755 82.6667 10.7005 83.2222 10.9255C83 12.2755 81.8889 13.1755 80.7778 13.1755ZM92.4445 5.75048L90.1111 11.8255H90L87.5556 5.75048H85.3334L89 14.3005L86.8889 19.0255H89L94.6667 5.75048H92.4445ZM73.7778 14.7505H75.8889V0.687976H73.7778V14.7505Z"
        fill="white" />
    </symbol>

    <symbol id="google-label" viewBox="0 0 45 8">
      <path
        d="M7.6667 4.47532C7.6667 5.37532 7.44447 6.16282 6.88892 6.72532C6.22225 7.40032 5.44447 7.73782 4.44447 7.73782C3.44447 7.73782 2.66669 7.40032 2.00003 6.72532C1.33336 6.05032 1.00003 5.26282 1.00003 4.25032C1.00003 3.23782 1.33336 2.45032 2.00003 1.77532C2.66669 1.10032 3.44447 0.762817 4.44447 0.762817C4.88892 0.762817 5.33336 0.875317 5.77781 1.10032C6.22225 1.32532 6.55558 1.55032 6.7778 1.88782L6.22225 2.45032C5.7778 1.88782 5.22225 1.66282 4.44447 1.66282C3.77781 1.66282 3.11114 1.88782 2.6667 2.45032C2.11114 2.90032 1.88892 3.57532 1.88892 4.36282C1.88892 5.15032 2.11114 5.82532 2.6667 6.27532C3.22225 6.72532 3.77781 7.06282 4.44447 7.06282C5.22225 7.06282 5.77781 6.83782 6.33336 6.27532C6.6667 5.93782 6.88892 5.48782 6.88892 4.92532H4.44447V4.02532H7.6667V4.47532ZM12.7778 1.66282H9.77781V3.80032H12.5556V4.58782H9.77781V6.72532H12.7778V7.62532H8.88892V0.875317H12.7778V1.66282ZM16.4445 7.62532H15.5556V1.66282H13.6667V0.875317H18.3334V1.66282H16.4445V7.62532ZM21.5556 7.62532V0.875317H22.4445V7.62532H21.5556ZM26.2222 7.62532H25.3334V1.66282H23.4445V0.875317H28V1.66282H26.1111V7.62532H26.2222ZM36.7778 6.72532C36.1111 7.40032 35.3334 7.73782 34.3334 7.73782C33.3334 7.73782 32.5556 7.40032 31.8889 6.72532C31.2222 6.05032 30.8889 5.26282 30.8889 4.25032C30.8889 3.23782 31.2222 2.45032 31.8889 1.77532C32.5556 1.10032 33.3334 0.762817 34.3334 0.762817C35.3334 0.762817 36.1111 1.10032 36.7778 1.77532C37.4445 2.45032 37.7778 3.23782 37.7778 4.25032C37.7778 5.26282 37.4445 6.05032 36.7778 6.72532ZM32.5556 6.16282C33 6.61282 33.6667 6.95032 34.3334 6.95032C35 6.95032 35.6667 6.72532 36.1111 6.16282C36.5556 5.71282 36.8889 5.03782 36.8889 4.25032C36.8889 3.46282 36.6667 2.78782 36.1111 2.33782C35.6667 1.88782 35 1.55032 34.3334 1.55032C33.6667 1.55032 33 1.77532 32.5556 2.33782C32.1111 2.78782 31.7778 3.46282 31.7778 4.25032C31.7778 5.03782 32 5.71282 32.5556 6.16282ZM39 7.62532V0.875317H40L43.2223 6.16282V0.875317H44.1111V7.62532H43.2223L39.7778 2.11282V7.62532H39Z"
        fill="white" stroke="white" stroke-width="0.222222" stroke-miterlimit="10" />
    </symbol>
  </defs>
</svg>